/* XPM */
static char *_6d9cc9401b04aa8ddf4fdc774e3df30jcO6Mvkq5wOl6LaW[] = {
/* columns rows colors chars-per-pixel */
"40 40 138 2 ",
"   c None",
".  c #000000",
"X  c #0A0606",
"o  c #0D0A09",
"O  c #150E0D",
"+  c #111111",
"@  c #1F1615",
"#  c #1F1B1B",
"$  c #201514",
"%  c #241817",
"&  c #251C1B",
"*  c #2B1D1C",
"=  c #34221F",
"-  c #1F2020",
";  c #242424",
":  c #2A2A2A",
">  c #362321",
",  c #342E2D",
"<  c #323232",
"1  c #3D3D3D",
"2  c #422D2B",
"3  c #492F2C",
"4  c #48312F",
"5  c #4C3533",
"6  c #533634",
"7  c #563836",
"8  c #593936",
"9  c #543E3C",
"0  c #5E3E3A",
"q  c #603C37",
"w  c #623F3B",
"e  c #56403E",
"r  c #65413D",
"t  c #6A433F",
"y  c #434343",
"u  c #4C4C4C",
"i  c #534847",
"p  c #5D4D4B",
"a  c #515151",
"s  c #5E5352",
"d  c #5A5959",
"f  c #674542",
"g  c #6D4541",
"h  c #674945",
"j  c #6A4946",
"k  c #6A4C49",
"l  c #714844",
"z  c #754D49",
"x  c #61504E",
"c  c #6F504C",
"v  c #645554",
"b  c #6C5451",
"n  c #6A5E5D",
"m  c #735552",
"M  c #795652",
"N  c #795A56",
"B  c #765C59",
"V  c #7D5F5C",
"C  c #6C605F",
"Z  c #656666",
"A  c #6E6363",
"S  c #6C6C6C",
"D  c #766664",
"F  c #7A6664",
"G  c #796866",
"H  c #746C6B",
"J  c #7D6D6B",
"K  c #737070",
"L  c #7A7373",
"P  c #7A7A7A",
"I  c #80625F",
"U  c #816562",
"Y  c #846A67",
"T  c #82716F",
"R  c #837371",
"E  c #897573",
"W  c #857877",
"Q  c #897977",
"!  c #837F7F",
"~  c #84807F",
"^  c #8D817F",
"/  c #848282",
"(  c #898686",
")  c #8E8887",
"_  c #8D8E8E",
"`  c #958685",
"'  c #978D8C",
"]  c #908D8C",
"[  c #98908F",
"{  c #8F9090",
"}  c #909090",
"|  c #909191",
" . c gray57",
".. c #939191",
"X. c #919292",
"o. c #959191",
"O. c #949292",
"+. c #969292",
"@. c gray58",
"#. c #959595",
"$. c #969797",
"%. c #979797",
"&. c #919292",
"*. c #989494",
"=. c #9A9695",
"-. c #9A9696",
";. c #9A9796",
":. c #9D9796",
">. c #9C9291",
",. c #989999",
"<. c #9A9B9B",
"1. c #9C9898",
"2. c #9D9998",
"3. c #9D9999",
"4. c #9B9C9C",
"5. c gray61",
"6. c #9C9D9D",
"7. c #9D9D9D",
"8. c #9E9D9C",
"9. c #A19C9C",
"0. c #A09E9E",
"q. c gray63",
"w. c #A0A2A2",
"e. c #A2A3A3",
"r. c #A3A4A4",
"t. c #A5A6A6",
"y. c #A7A6A6",
"u. c #A6A7A7",
"i. c #A7A7A7",
"p. c #A7A8A8",
"a. c #A9AAAA",
"s. c #AAABAB",
"d. c gray67",
"f. c #ABABAC",
"g. c #ABACAC",
"h. c #ADAEAE",
"j. c #AFAFAF",
"k. c #AEB0B0",
/* pixels */
"                    . . . . . . . . . . . . . . . . . . . .                     ",
"                    o o o o o o o o o o o o o o o o o o o o                     ",
"                  O * > > > > > > > > > > > > > > > > > > * O                   ",
"          . . . . $ 3 w r r w w w w w w w w w w w w r r w 3 $ . . . .           ",
"        @ : : & @ = 8 l z l l l l l l l l l l l l l l z l 8 = @ # ; ; +         ",
"      . ; d S s 5 6 r l l l l l l l l l l l l l l l l l l r 6 5 i d u - .       ",
"    X @ 1 P *.W k w g l l l l l l l l l l l l l l l l l l g r h G ! Z < + X     ",
"  + < u S X.9.Q c r g l l l l l l l l l l l l l l l l l l g t k J ( P d 1 : o   ",
". + u / 4.r.3.R k r g l l l l l l l l l l l l l l l l l l g r h D / _ / S 1 + . ",
". + a #.h.g.3.R k r g l l l l l l l l l l l l l l l l l l g r h D / _ X.P y + . ",
". @ a #.h.g.3.R k r g l l l l l l l l l l l l l l l l l l g r h D ~ _ { P y + . ",
". + u _ p.u.*.T k r g l l l l l l l l l l l l l l l l l l g r h D / X.X.P y + . ",
". + u / 6.4.] J k r g l l l l l l l l l l l l l l l l l l g r k J ] 4.6./ u + . ",
". + y P X.X./ D h r g l l l l l l l l l l l l l l l l l l g r k T *.u.p._ u + . ",
". + y P _ _ ~ D h r g l l l l l l l l l l l l l l l l l l g r k R 3.s.g.X.a + . ",
". + y P _ _ / D h r g l l l l l l l l l l l l l l l l l l g r k R 3.s.s.X.a + . ",
". + y P _ _ / D h r g g l l l l l l l l l l l l l l l l g t r k R 3.s.s.X.u + . ",
". + y P _ _ ~ D h r r g g l l l l g g g g g g l l l l g g r w k R 3.s.s.X.u + . ",
". + y P _ _ / D h w r r g g l l l l l l l l l l l l g g r w w k R 3.s.s.X.u + . ",
". + y / #.#.) G h w w r r g g t g m V U U V m g t g g r r w w k R 3.s.f.X.a + . ",
". + u _ r.q.o.J h w w w r r w w h F ^ ' ' ^ F h w w r r w w q h R 3.s.g.X.a + . ",
". + u _ u.u.*.R b f h h h h h h m Q 3.p.p.3.Q m h h h h h h f b R *.u.u._ u + . ",
". + u / 6.4.o.~ J D G G D D G J Q [ u.k.k.u.[ Q J G D D G G D J ! X.,.6./ u + . ",
". + y P X._ _ ( / ! ! ! ! / ( o.3.9.q.q.q.q.9.3.o.( / ! ! ! ! / ( _ _ X.P y + . ",
". + y P _ _ / ! L L L L L W ) 6.q.{ P S S P _ q.6.) W L L L L L ! / _ _ P y + . ",
". + y P _ _ / H v p p x b B E :.,.S 1 ; ; 1 S ,.:.E B b x p p v H / _ _ P y + . ",
". + y P _ _ ! n e 5 5 7 w g U ` ) d ; o o ; d ) ` U g w 7 5 5 e n ! _ _ P y + . ",
". + y P _ _ ! n 9 5 7 0 w g M Y R A a u u a A T Y M g w 0 7 5 9 n ! _ _ P y + . ",
". + y P _ _ ! n 9 7 w g g l l z N R ) X.X.) R N z l l g g w 7 9 n ! _ _ P y + . ",
". + y P _ _ ! n 9 7 r l l l g g z Y ` >.>.` Y z g g l l l r 7 9 n ! _ _ P y + . ",
". + y P _ _ ! n 9 7 r l l l g g l M I Y Y I M l g g l l l r 7 9 n ! _ _ P y + . ",
". + y P _ _ ! n 9 7 r l l l l l l l l l l l l l l l l l l r 7 9 n ! _ _ P y + . ",
". + y P _ _ ! n 9 7 r l l l l l l g g g g g g l l l l l l r 7 9 n ! _ _ P y + . ",
". + y P _ _ ! n 9 7 r g l l l l l l l l l l l l l l l l g r 7 9 n ! _ _ P y + . ",
". + y P X.X./ C e 7 0 g g l l l l l l l l l l l l l l g g 0 7 e C / X.X.P y + . ",
". + y P X.X./ A e 6 7 0 f l l l l l l l l l l l l l l f 0 7 6 e A / X.X.P y + . ",
". + 1 S P P K s 5 2 2 4 7 0 r r w w w w w w w w r r 0 7 4 2 2 5 s K P P S 1 + . ",
"  o : 1 y y 1 , * % % & * > > > > > > > > > > > > > > * & % % * , 1 y y 1 : o   ",
"    o + + + o o X X X X X o o o o o o o o o o o o o o X X X X X o o + + + o     ",
"      . . . . . . . . . . . . . . . . . . . . . . . . . . . . . . . . . .       "
};
