/* XPM */
static char *_af2574ad1ce42abe4bb1f5083eea463u5ykjPY35FBvNYUt[] = {
/* columns rows colors chars-per-pixel */
"40 40 154 2 ",
"   c #4E3F47",
".  c #544147",
"X  c #634849",
"o  c #724F4B",
"O  c #78524C",
"+  c #78514C",
"@  c #77514C",
"#  c #76514C",
"$  c #6B4C4A",
"%  c #5A4448",
"&  c #4F3F46",
"*  c #4E3F46",
"=  c #514047",
"-  c #503F47",
";  c #4F3F47",
":  c #594448",
">  c #66494A",
",  c #734F4B",
"<  c #6E4D4B",
"1  c #61474A",
"2  c #584349",
"3  c #534148",
"4  c #524047",
"5  c #534147",
"6  c #664A4A",
"7  c #6D4C4B",
"8  c #75504C",
"9  c #75504D",
"0  c #714F4E",
"q  c #6B4C4E",
"w  c #5F474B",
"e  c #554248",
"r  c #554247",
"t  c #5D4548",
"y  c #65494A",
"u  c #544248",
"i  c #7C544F",
"p  c #835853",
"a  c #7F5653",
"s  c #6B4D4E",
"d  c #684A4A",
"f  c #574349",
"g  c #7F5550",
"h  c #8A5B55",
"j  c #875A55",
"k  c #6F4F4F",
"l  c #594449",
"z  c #5B4448",
"x  c #6C4C4A",
"c  c #79524C",
"v  c #704F4F",
"b  c #584449",
"n  c #895B55",
"m  c #7F554F",
"M  c #885A54",
"N  c #865955",
"B  c #6E4E4F",
"V  c #6F4E4F",
"C  c #76504C",
"Z  c #7E554F",
"A  c #76504B",
"S  c #7A524D",
"D  c #805650",
"F  c #865A55",
"G  c #78524D",
"H  c #7C544E",
"J  c #815651",
"K  c #875A54",
"L  c #8D5D57",
"P  c #875A56",
"I  c #6C4C4B",
"U  c #885A55",
"Y  c #8E5D57",
"T  c #855955",
"R  c #6D4E4F",
"E  c #6B4B4A",
"W  c #6E4C47",
"Q  c #704D49",
"!  c #7E5550",
"~  c #805651",
"^  c #8B5C56",
"/  c #855852",
"(  c #79534F",
")  c #664A4B",
"_  c #574348",
"`  c #584347",
"'  c #654847",
"]  c #7D544F",
"[  c #564248",
"{  c #604541",
"}  c #664844",
"|  c #74504B",
" . c #845852",
".. c #845853",
"X. c #74504A",
"o. c #664845",
"O. c #5B4446",
"+. c #544145",
"@. c #5B4343",
"#. c #5B4445",
"$. c #504047",
"%. c #57403E",
"&. c #5E4442",
"*. c #6F4D49",
"=. c #815751",
"-. c #865954",
";. c #7A534E",
":. c #584141",
">. c #534043",
",. c #524046",
"<. c #524045",
"1. c #554041",
"2. c #533F42",
"3. c #584243",
"4. c #634746",
"5. c #744F4B",
"6. c #734F4A",
"7. c #724E4A",
"8. c #694A47",
"9. c #5C4444",
"0. c #534042",
"q. c #513F44",
"w. c #514046",
"e. c #524043",
"r. c #534145",
"t. c #584244",
"y. c #5F4441",
"u. c #5C4342",
"i. c #564144",
"p. c #594243",
"a. c #614541",
"s. c #5E4547",
"d. c #6A4A47",
"f. c #6D4C47",
"g. c #5E4647",
"h. c #79524D",
"j. c #76514D",
"k. c #73504F",
"l. c #6C4D4E",
"z. c #5D4549",
"x. c #6F4D4B",
"c. c #805653",
"v. c #694A48",
"b. c #574243",
"n. c #604441",
"m. c #5B4342",
"M. c #504048",
"N. c #544042",
"B. c #56403E",
"V. c #57403D",
"C. c #554040",
"Z. c #524044",
"A. c #514048",
"S. c white",
/* pixels */
"  . X o O + @ @ @ @ @ @ O # $ % & * = - ; . X o O + @ @ @ @ @ @ O # $ % & * = = ",
". : > , + + @ @ @ @ @ @ + @ < 1 2 3 4 = 5 : 6 , + + @ @ @ @ @ @ + @ < 1 2 3 4 = ",
"X > 7 8 + @ @ @ @ @ @ @ @ @ 9 0 q w e r t y < 8 + @ @ @ @ @ @ @ @ @ 9 0 q w u - ",
"o , 8 # @ @ @ @ @ @ @ @ # @ i p a s 2 : d , # @ @ @ @ @ @ @ @ @ # @ i p a s f & ",
"O + + @ @ @ @ @ @ @ @ @ # @ g h j k l z x @ c @ @ @ @ @ @ @ @ @ # @ g h j v b * ",
"+ + @ @ @ @ @ @ @ @ @ @ # @ g n j k l % $ @ c @ @ @ @ @ @ @ @ @ # @ g n j k b * ",
"@ @ @ @ @ @ @ @ @ @ @ @ # @ m M N B l % $ # O @ @ @ @ @ @ @ @ @ # @ m M N V 2 * ",
"@ @ @ @ @ @ @ @ @ @ @ @ # @ m M N B l % $ # O @ @ @ @ @ @ @ @ @ # @ m M N V 2 * ",
"@ @ @ @ @ @ @ @ @ @ @ @ # @ m M N B l % $ # O @ @ @ @ @ @ @ @ @ # @ m M N V 2 * ",
"@ @ @ @ @ @ @ @ @ @ @ @ C @ Z M N B l % $ # O @ @ @ @ @ @ @ @ @ C @ Z M N V 2 * ",
"@ @ @ @ @ @ @ @ @ @ @ @ A @ Z M N B l % $ # O @ @ @ @ @ @ @ @ @ A @ Z M N V 2 * ",
"@ @ @ @ @ @ @ @ @ @ @ @ + S D n F B l % $ @ O @ @ @ @ @ @ @ @ @ + S D n N V 2 * ",
"G + @ # # # # # # C A + H J K L P k l % I @ O @ # # # # # C A + H J K L P k b * ",
"@ @ @ @ @ @ @ @ @ @ @ S J U L Y T R b % E # O @ @ @ @ @ @ @ @ S J U L Y T B 2 & ",
"W Q # i g g ! ! ! ! Z ~ K L ^ / ( ) _ ` ' Q @ ] g g ! ! ! ! Z ~ K L ^ / ( ) [ ; ",
"{ } |  .n n U U U M M n L Y ..X.o.O.. +.@.} A  .n n U U U M M n L Y ..X.o.#.. $.",
"%.&.*.=.U K K K K K K K U -.;.o.:.>.,.<.1.&.Q =.U K K K K K K K U -.;.o.:.>.,.= ",
"2.3.4.*.5., 6.6.6.6.6.6.6.7.8.9.0.q.w.w.e.3.4.*.5., 6.6.6.6.6.6.6.7.8.9.0.q.w.= ",
"w.r.t.&.{ { { { { { { { { y.u.i.,.= = = w.r.p.&.{ { { { { { { { { y.u.i.,.= = = ",
"; ,.t.&.a.{ { { { { { { a.{ @.+.$.$.= $.$.,.t.&.a.{ { { { { { { a.{ @.+.$.$.= = ",
"  5 s.d.W W f.f.f.f.f.f.W f.' ` - ; = $.; 5 g.d.W W f.f.f.f.f.f.W f.' ` - ; = = ",
". : y , + @ @ @ @ @ @ @ + # < 1 2 3 4 = 5 : > , + @ @ @ @ @ @ @ + # < 1 2 3 4 = ",
"X 6 < C h.G O O O O O O O G j.k.l.w e r z.> x.# h.G O O O O O O O G j.k.l.w e - ",
"o , 8 @ @ @ @ @ @ @ @ @ @ @ i p c.s 2 : d , # @ @ @ @ @ @ @ @ @ @ @ i p c.s f & ",
"O + + @ @ @ @ @ @ @ @ @ # @ g h j k l z x @ c @ @ @ @ @ @ @ @ @ # @ g h j v b * ",
"+ + @ @ @ @ @ @ @ @ @ @ # @ g n j k l % $ @ c @ @ @ @ @ @ @ @ @ # @ g n j k b * ",
"@ @ @ @ @ @ @ @ @ @ @ @ # @ m M N B l % $ # O @ @ @ @ @ @ @ @ @ # @ m M N V 2 * ",
"@ @ @ @ @ @ @ @ @ @ @ @ # @ m M N B l % $ # O @ @ @ @ @ @ @ @ @ # @ m M N V 2 * ",
"@ @ @ @ @ @ @ @ @ @ @ @ # @ m M N B l % $ # O @ @ @ @ @ @ @ @ @ # @ m M N V 2 * ",
"@ @ @ @ @ @ @ @ @ @ @ @ C @ Z M N B l % $ # O @ @ @ @ @ @ @ @ @ C @ Z M N V 2 * ",
"@ @ @ @ @ @ @ @ @ @ @ @ A @ Z M N B l % $ # O @ @ @ @ @ @ @ @ @ A @ Z M N V 2 * ",
"@ @ @ @ @ @ @ @ @ @ @ @ + S D n F B l % $ @ O @ @ @ @ @ @ @ @ @ + S D n N V 2 * ",
"G + @ # # # # # # C A + H J K L P k l % I @ O @ # # # # # C A + H J K L P k b * ",
"@ @ @ @ @ @ @ @ @ @ @ S J U L Y T R b % E # O @ @ @ @ @ @ @ @ S J U L Y T B 2 & ",
"W Q # i g g ! ! ! ! Z ~ K L ^ / ( ) _ ` ' Q @ ] g g ! ! ! ! Z ~ K L ^ / ( ) [ ; ",
"{ } |  .n n U U U M M n L Y ..X.o.O.. +.@.} A  .n n U U U M M n L Y ..X.o.#.. $.",
"%.&.*.=.M K K K K K K K U -.;.o.:.>.,.<.1.&.Q =.M K K K K K K K U -.;.o.:.>.,.= ",
"2.3.4.*.5., 6.6.6.6.6.6.5.7.v.9.>.q.w.w.e.b.4.*.5., 6.6.6.6.6.6.5.7.v.9.>.q.w.= ",
"w.r.t.&.n.y.y.y.y.y.y.y.n.y.m.i.,.= = = w.r.p.&.n.y.y.y.y.y.y.y.n.y.m.i.,.= = = ",
"M.w.N.B.V.V.V.V.V.V.V.V.V.V.C.Z.= A.= = A.w.N.B.V.V.V.V.V.V.V.V.V.V.C.Z.= A.= = "
};
