/* XPM */
static char *f023123a92e64fd1ced0e577de5c7686Qq2ZHYcjFxAE7lPf[] = {
/* columns rows colors chars-per-pixel */
"40 40 128 2 ",
"   c None",
".  c #010101",
"X  c #0E0E07",
"o  c #0C0D0F",
"O  c #121206",
"+  c #181603",
"@  c #161509",
"#  c #18170A",
"$  c #0D0E13",
"%  c #131413",
"&  c #181816",
"*  c #1B1B1A",
"=  c #272506",
"-  c #282607",
";  c #25240C",
":  c #29270A",
">  c #2B2A0B",
",  c #35330E",
"<  c #21211F",
"1  c #323116",
"2  c #383613",
"3  c #3C3A16",
"4  c #3A391D",
"5  c #1D1D22",
"6  c #202020",
"7  c #2E2E22",
"8  c #2A2A2C",
"9  c #302F23",
"0  c #2E2E33",
"q  c #343433",
"w  c #3B3B3C",
"e  c #474412",
"r  c #494614",
"t  c #4B4814",
"y  c #4F4C19",
"u  c #514E19",
"i  c #575415",
"p  c #5A5616",
"a  c #53501A",
"s  c #58551D",
"d  c #5D591B",
"f  c #6C671F",
"g  c #6D691F",
"h  c #4C4A26",
"j  c #4F4D29",
"k  c #514E20",
"l  c #585627",
"z  c #504E3B",
"x  c #625E21",
"c  c #676323",
"v  c #6E6A23",
"b  c #64612E",
"n  c #6C6828",
"m  c #716C23",
"M  c #777226",
"N  c #7E7926",
"B  c #757028",
"V  c #7B7728",
"C  c #444444",
"Z  c #454549",
"A  c #47484B",
"S  c #4A4A4D",
"D  c #545343",
"F  c #474850",
"G  c #4D4D50",
"H  c #545456",
"J  c #57575B",
"K  c #5A5A5B",
"L  c #65634B",
"P  c #5B5B61",
"I  c #676769",
"U  c #6D6D6C",
"Y  c #777773",
"T  c #787874",
"R  c #7D7D7D",
"E  c #817C2B",
"W  c #8B862E",
"Q  c #8D882F",
"!  c #918B2F",
"~  c #8E8930",
"^  c #918C30",
"/  c #979232",
"(  c #9A9433",
")  c #9F9935",
"_  c #A49E37",
"`  c #A8A238",
"'  c #82817C",
"]  c #828285",
"[  c #8D8D86",
"{  c #868688",
"}  c #8A8A8B",
"|  c #959595",
" . c #979798",
".. c #99999A",
"X. c #9F9FA0",
"o. c #A4A4A5",
"O. c #ADADAD",
"+. c #B2B2B4",
"@. c #B7B7B9",
"#. c gray",
"$. c #BCBDBE",
"%. c #B9B9BB",
"&. c #C3C3C5",
"*. c #C5C5C4",
"=. c #C5C5C5",
"-. c #C6C6C4",
";. c #C4C4C8",
":. c #C9C9CA",
">. c gray80",
",. c gray81",
"<. c gray82",
"1. c #D8D8D9",
"2. c gainsboro",
"3. c #DDDDDD",
"4. c #DDDDDE",
"5. c gray87",
"6. c #DEDEDF",
"7. c #DFDFDF",
"8. c #E1E1E1",
"9. c gray89",
"0. c #E6E6E6",
"q. c gray92",
"w. c #EEEEEE",
"e. c #F4F4F4",
"r. c gray96",
"t. c #F8F8F8",
"y. c #FDFDFD",
"u. c white",
/* pixels */
"                                                                                ",
"                                                                                ",
"                                                                                ",
"                                                                                ",
"                                                                                ",
"                                                                                ",
"                                                                                ",
"                                                                                ",
"                                                                                ",
"                                                                                ",
"                      ` ` `                                                     ",
"                    Q Q Q Q Q                                                   ",
"                  E d t e t d E                                                 ",
"                ( B 3 # X # 3 B (                                               ",
"              N m b D S F S D b m N                                             ",
"            ^ p , z [ %.;.%.[ z , i ^ ` ` ` ` ` ` ` ` ` ` ` ` ` ` ` ` ` `       ",
"          ^ E k 9 H o.7.q.7.o.H 7 k E ! Q Q Q Q Q Q Q Q Q Q Q Q Q Q Q Q ~ ^     ",
"        N d l L T ] { { { { { ] Y L k r r t t t t t t t t t t t r t y u s v ^   ",
"      ) m , 7 R -.O.K 6 % 6 K O.-.' 7 O O @ @ @ @ @ @ @ @ @ @ @ @ @ O O ; s ~ ` ",
"      ) v ; * R >.O.C . . . C O.1.o.P Z Z S S S S S S A Z Z S S S Z 0 $ O u Q ` ",
"      ) m > & I O.| w . . . q } -.:.$.%.%.%.%.%.%.%.%.@.+.+.%.%.$.+.R 0 O y Q ` ",
"      ) m > & K  .] q . . . q R +.>.1.7.7.7.7.7.7.7.9.w.t.e.0.9.e.e.+.Z @ t Q ` ",
"    ` ) m : % J  .] q . . . q R o.o.} ] ] ] ] ] ] ]  .<.u.q.O. .<.u.&.G @ r Q ` ",
"      ) m > & J | R q . . . q R  .U q * * < < < * & w | 7.$.K w } 7.@.S @ t Q ` ",
"      ) M r 4 D U I S q q q S I U D 1 = - > > : + . o K ..R 8 $ H  .] q O y Q ` ",
"        W V n j q Z I R { R I Z q h c m m v m v t + . 5 w 0 o . 5 w 0 $ O u Q ` ",
"          _ Q a ; q U | X.| U q ; u Q _ _ ) _ ( m 2 @ O @ @ O O @ @ O O ; s ~ ` ",
"            / g a j D J P J D j a f /         ` E x a y y y u u y y y y s v ^   ",
"              / Q n 4 & $ & 4 n Q /               ~ ~ Q Q Q Q ~ Q Q Q Q ~ ^     ",
"                _ V r > ; > r V _                   ` ` ` ` ` ` ` ` ` ` `       ",
"                  W M m v m M W                                                 ",
"                    ) ) ) ) )                                                   ",
"                        `                                                       ",
"                                                                                ",
"                                                                                ",
"                                                                                ",
"                                                                                ",
"                                                                                ",
"                                                                                ",
"                                                                                "
};
