/* XPM */
static char *_f0211c5664f4b14c32770eba19236ab5JYRihNY2KKMAxuA[] = {
/* columns rows colors chars-per-pixel */
"40 40 178 2 ",
"   c None",
".  c #010102",
"X  c #060608",
"o  c #080709",
"O  c #0A090B",
"+  c #080305",
"@  c #13090B",
"#  c #1B0C0E",
"$  c #180405",
"%  c #0B0E11",
"&  c #110F12",
"*  c #121214",
"=  c #161619",
"-  c #17191C",
";  c #191A1D",
":  c #181518",
">  c #260B0C",
",  c #2E0D0E",
"<  c #2A0E10",
"1  c #2E1719",
"2  c #331113",
"3  c #321619",
"4  c #361517",
"5  c #1C1E20",
"6  c #211F22",
"7  c #232224",
"8  c #2C2124",
"9  c #252629",
"0  c #2B262A",
"q  c #26292C",
"w  c #2A2A2E",
"e  c #3E2427",
"r  c #2D2C30",
"t  c #302D32",
"y  c #2E3236",
"u  c #2F3539",
"i  c #343236",
"p  c #343538",
"a  c #37383C",
"s  c #411314",
"d  c #4B1516",
"f  c #411B1D",
"g  c #561819",
"h  c #5A1B1B",
"j  c #521718",
"k  c #631C1C",
"l  c #6D1F20",
"z  c #412527",
"x  c #5D3B28",
"c  c #6C2122",
"v  c #662425",
"b  c #762627",
"n  c #6A3A3E",
"m  c #743436",
"M  c #72503F",
"N  c #3B3C40",
"B  c #413F42",
"V  c #683F43",
"C  c #3F4046",
"Z  c #424145",
"A  c #46454A",
"S  c #49454B",
"D  c #4A4A4B",
"F  c #464548",
"G  c #524349",
"H  c #4C4E51",
"J  c #504B50",
"K  c #4E565C",
"L  c #4F585E",
"P  c #555359",
"I  c #575359",
"U  c #654A4F",
"Y  c #6A4D52",
"T  c #62555B",
"R  c #4D5A61",
"E  c #525C62",
"W  c #5C5B62",
"Q  c #635E65",
"!  c #5D6367",
"~  c #636067",
"^  c #64646A",
"/  c #68636A",
"(  c #6C6F75",
")  c #766F77",
"_  c #6D737A",
"`  c #657077",
"'  c #727275",
"]  c #76747C",
"[  c #7A757E",
"{  c #852726",
"}  c #872929",
"|  c #942C2C",
" . c #992D2D",
".. c #9A3A3B",
"X. c #A32F2F",
"o. c #A02F30",
"O. c #AC3232",
"+. c #AA3C3E",
"@. c #A63C3D",
"#. c #B13333",
"$. c #AB433C",
"%. c #AD5931",
"&. c #AF5230",
"*. c #C45B39",
"=. c #CA6734",
"-. c #9F484B",
";. c #944F54",
":. c #955154",
">. c #9E5957",
",. c #A34648",
"<. c #A04E51",
"1. c #AE6C56",
"2. c #BE6755",
"3. c #B86C4E",
"4. c #865D63",
"5. c #9B5C60",
"6. c #8E656B",
"7. c #93686E",
"8. c #92656B",
"9. c #87767E",
"0. c #89757D",
"q. c #8D7B7D",
"w. c #9D786C",
"e. c #C76D69",
"r. c #CD6F70",
"t. c #CA7171",
"y. c #6E7B83",
"u. c #767B84",
"i. c #7A7B80",
"p. c #827D84",
"a. c #8D7C84",
"s. c #927B81",
"d. c #7B8285",
"f. c #85838C",
"g. c #8A838C",
"h. c #848A94",
"j. c #8A8B95",
"k. c #8D8F99",
"l. c #868790",
"z. c #87959E",
"x. c #8C929C",
"c. c #9A989D",
"v. c #AD9394",
"b. c #B79796",
"n. c #8A9AA3",
"m. c #8897A0",
"M. c #969EA6",
"N. c #95A2AC",
"B. c #99A4AE",
"V. c #97A5B0",
"C. c #99A6B0",
"Z. c #9AABB5",
"A. c #9BAEB8",
"S. c #9EB1BC",
"D. c #A6A6A9",
"F. c #A4B5BE",
"G. c #B5B4B4",
"H. c #BBBABA",
"J. c #C08082",
"K. c #D8B3B0",
"L. c #A7B7C0",
"P. c #AABAC3",
"I. c #B7C3CA",
"U. c #CECDCD",
"Y. c #C4C3C3",
"T. c #CBD5DB",
"R. c #C7D2D7",
"E. c #D6D9DC",
"W. c #EEC9C9",
"Q. c #F6CFCF",
"!. c #E7D4D5",
"~. c #D5DEE3",
"^. c #DEE3E6",
"/. c #E4E3E3",
"(. c #ECECEC",
"). c #EDEFF0",
"_. c #F1F3F4",
"`. c #F7F8F9",
/* pixels */
"                        X X X . . . . .                                         ",
"                        X X O @ # # # #                                         ",
"                        . X # s h h g d <                                       ",
"                          o 2 c  .o. .c 2 o                                     ",
"                          o 2 k } ..-.m 3 + .                                   ",
"                              , f V 4.Y 8 . . . . . . . .                       ",
"                              & 7 J ) / a ; = - ; ; ; ; ; -                     ",
"                            ; i A ~ i.] ^ E K K K K K L K A q                   ",
"                          O 0 I ] p.p.l.x.n.n.n.n.n.n.n.m.` y O                 ",
"                        ; 0 A ' j.k.j.x.B.S.S.S.S.S.S.L.A.y.p O .               ",
"                      * i I ( j.N.N.M.N.Z.A.A.A.A.A.A.F.Z.y.u O .               ",
"                    . = Z ] x.N.A.F.F.F.L.L.L.L.L.L.L.P.F.d.a O .               ",
"                    . = H l.B.Z.F.I.R.~.~.~.~.~.~.~.~.^.~.M.C O .               ",
"                    . - K z.A.A.F.R.(.`._._._._._._._.`.).D.A O .               ",
"                    . ; L n.S.A.L.E.`.(.U.G.G.G.G.H.H.H.G.p.p O .               ",
"                    . ; L n.S.A.L.~._.U.p.D Z D D D H H D i - X .               ",
"                    . - K z.A.A.L.~._.Y./ 0 7 9 5 * O - 7 5 * + +               ",
"                    . = H l.B.Z.L.~.`.^.D.d.d.i.P 5 % a ( ! 0 O .               ",
"                    . = Z ] x.N.F.T._.`.(././.E.c.B 7 ' Y.D.A O .               ",
"                    . * r P _ j.C.I.E.!.!.W.Q.W.b.M x w.K.v.F O .               ",
"                    + O * 9 A _ k.M.D.b.J.t.r.t.2.%.%.3.e.:.e O .               ",
"                    X X . O 0 T 9.a.0.8.<.+.@.+.&.=.=.*.$.b 3 o .               ",
"                      . . . 1 n :.>.:.:.:.;.;.:.>.1.1.1.:.n 1 o .               ",
"                        . o 3 b @.+.@.-.8.0.a.0.q.q.q.s.0.T 0 O .               ",
"                        > O 3 m ,.,.,.5.s.x.x.x.x.x.x.x.j.^ r O .               ",
"                       .d @ 8 U 6.7.7.s.c.B.Z.C.B.B.V.Z.N._ y O .               ",
"                    #. .g # 9 W p.g.p.f.x.n.n.n.n.n.n.B.N._ u O .               ",
"                  #.#. .g # q W f.j.f.u.! R L E L K E u.x.( y O .               ",
"                O.O.#. .g # q W p.g.p.~ a ; = - = = q I ] ~ w O                 ",
"              O.O.#.#. .g # q W p.[ Q G z , $ + O ; r F I S 7 X                 ",
"              #.O.#.#. .g # 0 ~ [ W i z v l s @ 5 F I S t 6 * +                 ",
"                X.O.O.| d # 9 I / N : 2 b } j # 9 I / Z = . .                   ",
"                b { { c 2 @ = i N q O > k c 4 @ ; p B w O .                     ",
"                        @ o O * * %         @ o O * * &                         ",
"                        . + + . . .         . + + . . .                         ",
"                          . . . .             . . . .                           ",
"                                                                                ",
"                                                                                ",
"                                                                                ",
"                                                                                "
};
