/* XPM */
static char *fbe49a39293b4d728766d5d3a8e191954kIQa2EdA8cC9I1C[] = {
/* columns rows colors chars-per-pixel */
"40 40 214 2 ",
"   c #333B4D",
".  c #323B4C",
"X  c #353E50",
"o  c #3B465A",
"O  c #414C62",
"+  c #3F4A5F",
"@  c #384154",
"#  c #333C4D",
"$  c #3C4659",
"%  c #3C4559",
"&  c #3D475B",
"*  c #404B60",
"=  c #424E63",
"-  c #414D62",
";  c #3E495D",
":  c #515D76",
">  c #515E77",
",  c #525E77",
"<  c #4F5C74",
"1  c #4A566D",
"2  c #455167",
"3  c #475369",
"4  c #4D5971",
"5  c #687796",
"6  c #687795",
"7  c #697896",
"8  c #697897",
"9  c #647290",
"0  c #54627C",
"q  c #48546B",
"w  c #4D5972",
"e  c #5D6B87",
"r  c #697997",
"t  c #7283A3",
"y  c #7181A2",
"u  c #6F7F9F",
"i  c #6C7C9D",
"p  c #6B7B9C",
"a  c #6B7B9B",
"s  c #6E7E9F",
"d  c #7182A3",
"f  c #6C7C9B",
"g  c #596782",
"h  c #49566D",
"j  c #4F5D76",
"k  c #647390",
"l  c #7081A1",
"z  c #7383A4",
"x  c #7080A1",
"c  c #6A7A9B",
"v  c #647494",
"b  c #627191",
"n  c #627292",
"m  c #627291",
"M  c #687898",
"N  c #6F7FA0",
"B  c #5A6883",
"V  c #4A566E",
"C  c #505D76",
"Z  c #6F80A0",
"A  c #667593",
"S  c #5F6E8C",
"D  c #586684",
"F  c #556481",
"G  c #566482",
"H  c #566481",
"J  c #566582",
"K  c #576684",
"L  c #5C6A88",
"P  c #647391",
"I  c #63728F",
"U  c #54617B",
"Y  c #465269",
"T  c #4C5870",
"R  c #5D6B86",
"E  c #657493",
"W  c #606F8D",
"Q  c #576583",
"!  c #556381",
"~  c #505D75",
"^  c #4F5B73",
"/  c #4B576F",
"(  c #46526A",
")  c #445068",
"_  c #455068",
"`  c #455169",
"'  c #48546D",
"]  c #4B5872",
"[  c #4D5A74",
"{  c #49566F",
"}  c #48546C",
"|  c #455066",
" . c #3D475C",
".. c #4A556C",
"X. c #4E5B73",
"o. c #4B5770",
"O. c #4A5670",
"+. c #3D475A",
"@. c #3C465A",
"#. c #3B4559",
"$. c #3A4458",
"%. c #3A4457",
"&. c #3A4357",
"*. c #3E485D",
"=. c #434E64",
"-. c #445067",
";. c #404B61",
":. c #3B4458",
">. c #384254",
",. c #394255",
"<. c #3B4558",
"1. c #444F64",
"2. c #444F65",
"3. c #454F65",
"4. c #455065",
"5. c #434F64",
"6. c #434F65",
"7. c #465166",
"8. c #5E6B87",
"9. c #5E6C88",
"0. c #5F6D89",
"q. c #55627C",
"w. c #5E6C87",
"e. c #6E7E9E",
"r. c #6D7D9D",
"t. c #6C7C9C",
"y. c #6C7B9B",
"u. c #61708C",
"i. c #4E5B74",
"p. c #49556C",
"a. c #576580",
"s. c #667696",
"d. c #7080A0",
"f. c #4F5C75",
"g. c #677696",
"h. c #667695",
"j. c #5F6E8D",
"k. c #5C6B8A",
"l. c #677797",
"z. c #62718E",
"x. c #49556D",
"c. c #586681",
"v. c #697998",
"b. c #637292",
"n. c #5D6C8B",
"m. c #5C6B8B",
"M. c #6A7A9A",
"N. c #687897",
"B. c #596888",
"V. c #637393",
"C. c #5E6D8A",
"Z. c #48556C",
"A. c #56647E",
"S. c #5F6F8E",
"D. c #5A6989",
"F. c #5A6988",
"G. c #617191",
"H. c #60708F",
"J. c #5E6D8D",
"K. c #5B6B8A",
"L. c #5A6A89",
"P. c #5F6E8E",
"I. c #606F8F",
"U. c #586783",
"Y. c #4B5871",
"T. c #47546B",
"R. c #515F7A",
"E. c #5E6D8B",
"W. c #607090",
"Q. c #5D6C8C",
"!. c #5B6A89",
"~. c #4F5D78",
"^. c #47536A",
"/. c #445066",
"(. c #53617E",
"). c #566583",
"_. c #465169",
"`. c #414D63",
"'. c #3F4A60",
"]. c #434F66",
"[. c #47536B",
"{. c #4A5770",
"}. c #4D5B75",
"|. c #4C5973",
" X c #48556D",
".X c #394356",
"XX c #384255",
"oX c #434E65",
"OX c #465167",
"+X c #5F6C88",
"@X c #687797",
"#X c #596887",
"$X c #677796",
"%X c #5E6D89",
"&X c #4D5A73",
"*X c #55637E",
"=X c #617090",
"-X c #5E6D8C",
";X c #5B6A8A",
":X c #606F8E",
">X c #586683",
",X c #4B5870",
"<X c #515F79",
"1X c #586785",
"2X c #515F7B",
"3X c #556380",
"4X c #586685",
"5X c #4E5B76",
"6X c #4E5C76",
"7X c #445167",
"8X c #455168",
"9X c #455269",
"0X c #424E64",
"qX c white",
/* pixels */
"                            . . X o O + @ # .                                   ",
"$ $ $ $ $ $ $ $ $ $ $ $ $ $ $ % & * = - ; $ % $ $ $ $ $ $ $ $ $ $ $ $ $ $ $ $ $ ",
": : > , , , , , , , , , , , , , < 1 2 3 4 : , , , , , , , , , , , , , , , > : : ",
"5 5 6 6 6 6 6 6 6 6 6 6 6 6 7 8 9 0 q w e 6 r 6 6 6 6 6 6 6 6 6 6 6 6 6 6 6 5 5 ",
"t y u i p p p p p p a a a p s d f g h j k l l i p p p p p p a a p p p p i u y t ",
"z x c v b n n n n n m b b n M N f B V C k Z i v b n n n n n m b n n n b v c x z ",
"7 A S D F F G H G J K K J J L P I U Y T R E W D F F G H G J K K Q G F ! D S A 7 ",
"~ ^ / ( ) _ _ ) ` ' ] [ { ( } w 4 |  .* ..X.o.( ) _ _ ) ` ' ] [ O.( ) ) ( / ^ ~ ",
"+.@.#.$.%.%.%.&.$.*.=.-.;.o :.$ $ %.>.,.<.@.#.$.%.%.%.&.$.*.=.-.;.o &.&.$.#.@.+.",
"1.2.3.| | | | 4.4.2.5.=.6.2.3.3.3.| 7.| 4.3.4.| | | | 4.4.2.5.=.6.2.4.| | 4.3.2.",
"e e 8.9.9.9.9.0.e q.1 Y < B 9.9.w.9.9.9.9.w.w.9.9.9.9.0.e q.1 Y < B 9.9.9.9.w.w.",
"e.e.r.t.y.y.t.u r.u.i.p.a.r u r.f y.f f f f f f f y.t.u r.u.i.p.a.r u r.f y.f f ",
"t l i M s.s.M s d.k f.h g f x a g.s.s.g.g.g.g.g.s.s.M s d.k f.h g f x a g.s.s.g.",
"d.r.h.j.k.k.j.l.t.z.< x.c.v.a b.n.k.n.n.n.n.n.n.m.k.j.l.t.z.< x.c.v.a b.n.k.n.n.",
"M.N.m k.B.B.m.V.l.C.X.Z.A.E s.S.D.B.F.F.F.F.F.F.F.F.m.V.l.C.X.Z.A.E s.S.D.F.F.F.",
"G.H.J.K.L.L.k.P.I.U.Y.T.R.E.W.Q.!.D.D.D.!.!.!.!.!.!.k.P.I.U.Y.T.R.E.W.Q.!.L.!.!.",
"G G H H H H H J F ~.^./.Y.(.J G G ).K Q G H F H H H H J F ~.^./.Y.(.J G H H H H ",
"_ ` ` ` _._.` ` _ `. .o '.].` ` [.{.}.|. X_.` ` _._.` ` _ `. .o '.].` ` ` _.` ` ",
"$.$.$.$.$.$.$.$.%..XXX@ ,.&.%.%.o ;.-.oX*.$.&.$.$.$.$.$.%..XXX@ ,.&.$.$.$.$.$.$.",
"4.4.4.| | | | | | | 7.OX| | | 4.2.6.=.5.2.4.4.| | | | | | | 7.OX| | | | | 4.4.4.",
"e 8.w.9.9.9.9.9.9.9.9.+X9.9.9.9.B < Y 1 q.e 0.9.9.9.9.9.9.9.9.+X9.9.9.9.9.w.8.e ",
"e.e.r.t.y.f f f f f f f y.f r.u r a.p.i.u.r.u t.y.f f f f f f f f f f y.t.r.e.e.",
"t l i M s.s.g.g.g.g.g.s.s.g.a x f g h f.k d.s M s.s.g.g.g.g.g.g.g.g.s.s.M i l t ",
"d.r.h.j.k.m.n.n.n.n.n.n.k.n.b.a v.c.x.< z.t.l.j.k.m.n.n.n.n.n.n.n.n.m.k.j.h.r.d.",
"M.N.m k.F.F.F.F.F.F.F.F.B.D.S.s.E A.Z.X.C.l.V.m.F.F.F.F.F.F.F.F.F.F.F.F.k.m N.M.",
"G.H.J.K.!.!.!.!.!.!.D.D.D.!.Q.W.E.R.T.Y.U.I.P.k.!.!.!.!.!.!.D.D.L.!.!.!.K.J.H.G.",
"G G H H H H H F H G Q K ).G G J (.Y./.^.~.F J H H H H F H G Q K ).G F F H H G G ",
"_ ` ` ` _._.` ` _. X|.}.{.[.` ` ].'.o  .`._ ` ` _._.` ` _. X|.}.{.[.` ` ` ` ` _ ",
"$.$.$.$.$.$.$.&.$.*.oX-.;.o %.%.&.,.@ XX.X%.$.$.$.$.$.&.$.*.oX-.;.o &.%.$.$.$.$.",
"4.4.4.| | | | 4.4.2.5.=.6.2.4.| | | OX7.| | | | | | | 4.4.2.5.=.6.2.4.| | | | | ",
"e 8.w.9.9.9.9.0.e q.1 Y < B 9.9.9.9.+X9.9.9.9.9.9.9.9.0.e q.1 Y < B 9.9.9.9.9.9.",
"e.e.r.t.y.y.t.u r.u.i.p.a.r u r.f y.f f f f f f f y.t.u r.u.i.p.a.r u r.f y.f f ",
"t l i M s.s.M s d.k f.h g f x a g.s.s.g.g.g.g.g.s.s.M s d.k f.h g f x a g.s.s.g.",
"d.r.h.j.k.k.j.l.t.z.< x.c.v.a b.n.k.n.n.n.n.n.n.m.k.j.l.t.z.< x.c.v.a b.n.k.n.n.",
"M.@Xb k.#X#Xk.b.$X%X&XZ.*XE s.P.F.#XF.F.F.F.F.F.F.#Xk.b.$X%X&XZ.*XE s.P.F.#XF.F.",
"=XI.-X!.F.F.;XP.:X>X,X[.<Xn.I.n.D.F.D.D.D.D.D.D.F.F.;XP.:X>X,X[.<Xn.I.n.D.F.D.D.",
"D D K K K K K 1XK 2X XY [ 3X1X4XK K K K K K K K K K K 1XK 2X XY [ 3X1X4XK K K K ",
"}.}.5X5X6X6X6X6X}.{.Y 7X} |.5X6X6X6X6X6X6X6X6X6X6X6X6X6X}.{.Y 7X} |.5X6X6X6X6X6X",
"Y Y Y Y Y Y Y Y Y 8X/.].-.9XY Y Y Y Y Y Y Y Y Y Y Y Y Y Y 8X/.].-.9XY Y Y Y Y Y ",
"0X0X0X0X0X0X0X= 0X0X6.6.=.0X= = 0X0X0X0X0X0X0X0X0X0X0X= 0X0X6.6.=.0X= = 0X0X0X0X"
};
