/* XPM */
static char * exit_xpm[] = {
"40 40 7 1",
" 	c None",
".	c #000000",
"+	c #704844",
"@	c #A4A4A4",
"#	c #63413D",
"$	c #898989",
"%	c #4D3533",
"          ....................          ",
"          ....................          ",
"     .....++++++++++++++++++++.....     ",
"     .....++++++++++++++++++++.....     ",
"     .....++++++++++++++++++++.....     ",
"  ...@@###++++++++++++++++++++##$$$..   ",
"  ...@@###++++++++++++++++++++##$$$..   ",
"..@@@@@###++++++++++++++++++++##$$$$$...",
"..@@@@@###++++++++++++++++++++##$$$$$...",
"..@@@@@###++++++++++++++++++++##$$$$$...",
"..@@@@@###++++++++++++++++++++##$$$$$...",
"..@@@@@###++++++++++++++++++++##$$$$$...",
"..$$$$$###++++++++++++++++++++##@@@@@...",
"..$$$$$###++++++++++++++++++++##@@@@@...",
"..$$$$$###++++++++++++++++++++##@@@@@...",
"..$$$$$###++++++++++++++++++++##@@@@@...",
"..$$$$$###++++++++++++++++++++##@@@@@...",
"..$$$$$#####+++++++++++++++#####@@@@@...",
"..$$$$$#####+++++++++++++++#####@@@@@...",
"..$$$$$#####+++++++++++++++#####@@@@@...",
"..@@@@@##########@@@@@##########@@@@@...",
"..@@@@@##########@@@@@##########@@@@@...",
"..$$$$$$$$$$$$$@@@@@@@@@@$$$$$$$$$$$$...",
"..$$$$$$$$$$$$$@@@@@@@@@@$$$$$$$$$$$$...",
"..$$$$$$$$$$$$$@@@@@@@@@@$$$$$$$$$$$$...",
"..$$$$$%%%%%+++@@.....@@@++%%%%%$$$$$...",
"..$$$$$%%%%%+++@@.....@@@++%%%%%$$$$$...",
"..$$$$$%%%+++++++@@@@@++++++++%%$$$$$...",
"..$$$$$%%%+++++++@@@@@++++++++%%$$$$$...",
"..$$$$$%%%+++++++@@@@@++++++++%%$$$$$...",
"..$$$$$%%%++++++++++++++++++++%%$$$$$...",
"..$$$$$%%%++++++++++++++++++++%%$$$$$...",
"..$$$$$%%%++++++++++++++++++++%%$$$$$...",
"..$$$$$%%%++++++++++++++++++++%%$$$$$...",
"..$$$$$%%%++++++++++++++++++++%%$$$$$...",
"..$$$$$%%%%%+++++++++++++++%%%%%$$$$$...",
"..$$$$$%%%%%+++++++++++++++%%%%%$$$$$...",
"  ...................................   ",
"  ...................................   ",
"  ...................................   "};
