/* XPM */
static char * player_xpm[] = {
"40 40 14 1",
" 	c #514047",
".	c #77514C",
"+	c #060608",
"@	c #AC3232",
"#	c #8D5D57",
"$	c #847E87",
"%	c #9BADB7",
"&	c #FFFFFF",
"*	c #59413E",
"=	c #DF7126",
"-	c #61413D",
";	c #413339",
">	c #734B46",
",	c #483431",
"  ..........++++++++  .............     ",
"  ..........++++++++  .............     ",
"............+++@@@@@++.............##   ",
"............+++@@@@@++.............##   ",
"............+++@@@@@++.............##   ",
"...............++$$$++++++++++.....##   ",
"...............++$$$++++++++++.....##   ",
"............+++$$$$$%%%%%%%%%%++...##   ",
"............+++$$$$$%%%%%%%%%%++...##   ",
"............+++$$$$$%%%%%%%%%%++...##   ",
"..........++$$$%%%%%%%%%%%%%%%++...##   ",
"..........++$$$%%%%%%%%%%%%%%%++...##   ",
"..........++%%%%%&&&&&&&&&&&&&++#####   ",
"..........++%%%%%&&&&&&&&&&&&&++#####   ",
"..........++%%%%%&&&&&&&&&&&&&++#####   ",
"**########++%%%%%&&&++++++++++++###**   ",
"**########++%%%%%&&&++++++++++++###**   ",
"  ********++$$$%%&&&&&&&&++&&&++***     ",
"  ********++$$$%%&&&&&&&&++&&&++***     ",
"  ********++$$$%%&&&&&&&&++&&&++***     ",
"  ........+++++$$$$$@@@@@==@@@++...     ",
"  ........+++++$$$$$@@@@@==@@@++...     ",
"............+++@@@@@$$$$$$$$$$++...##   ",
"............+++@@@@@$$$$$$$$$$++...##   ",
"............+++@@@@@$$$$$$$$$$++...##   ",
"..........@@+++$$$$$%%%%%%%%%%++...##   ",
"..........@@+++$$$$$%%%%%%%%%%++...##   ",
".......@@@@@+++$$$$$+++++++$$$++...##   ",
".......@@@@@+++$$$$$+++++++$$$++...##   ",
".......@@@@@+++$$$$$+++++++$$$++...##   ",
".......@@@@@+++$$+++@@+++$$+++-----##   ",
".......@@@@@+++$$+++@@+++$$+++-----##   ",
".....-------+++++;;;--+++++----->>>>>   ",
".....-------+++++;;;--+++++----->>>>>   ",
".....-------+++++;;;--+++++----->>>>>   ",
"**###>>>>>>>>>>,,;;;,,>>>>>>>>>>>>>,,   ",
"**###>>>>>>>>>>,,;;;,,>>>>>>>>>>>>>,,   ",
"  *****,,,,,,,,;;;;;;;,,,,,,,,,,,,,     ",
"  *****,,,,,,,,;;;;;;;,,,,,,,,,,,,,     ",
"  *****,,,,,,,,;;;;;;;,,,,,,,,,,,,,     "};
