/* XPM */
static char *_f4e833d0a304841b7188d1f07f7d3b77VSazJ0MzVfLonn4[] = {
/* columns rows colors chars-per-pixel */
"16 16 7 1 ",
"  c None",
". c black",
"X c #4D3533",
"o c #63413D",
"O c #704844",
"+ c #898989",
"@ c #A4A4A4",
/* pixels */
"    ........    ",
"  ..OOOOOOOO..  ",
" .@oOOOOOOOOo+. ",
".@@oOOOOOOOOo++.",
".@@oOOOOOOOOo++.",
".++oOOOOOOOOo@@.",
".++oOOOOOOOOo@@.",
".++ooOOOOOOoo@@.",
".@@oooo@@oooo@@.",
".+++++@@@@+++++.",
".++XXO@..@OXX++.",
".++XOOO@@OOOX++.",
".++XOOOOOOOOX++.",
".++XOOOOOOOOX++.",
".++XXOOOOOOXX++.",
" .............. "
};
