/* XPM */
static char * floor_xpm[] = {
"40 40 4 1",
" 	c #514047",
".	c #77514C",
"+	c #8D5D57",
"@	c #59413E",
"  .............       .............     ",
"  .............       .............     ",
"...............++   ...............++   ",
"...............++   ...............++   ",
"...............++   ...............++   ",
"...............++   ...............++   ",
"...............++   ...............++   ",
"...............++   ...............++   ",
"...............++   ...............++   ",
"...............++   ...............++   ",
"...............++   ...............++   ",
"...............++   ...............++   ",
"............+++++   ............+++++   ",
"............+++++   ............+++++   ",
"............+++++   ............+++++   ",
"@@+++++++++++++@@   @@+++++++++++++@@   ",
"@@+++++++++++++@@   @@+++++++++++++@@   ",
"  @@@@@@@@@@@@@       @@@@@@@@@@@@@     ",
"  @@@@@@@@@@@@@       @@@@@@@@@@@@@     ",
"  @@@@@@@@@@@@@       @@@@@@@@@@@@@     ",
"  .............       .............     ",
"  .............       .............     ",
"...............++   ...............++   ",
"...............++   ...............++   ",
"...............++   ...............++   ",
"...............++   ...............++   ",
"...............++   ...............++   ",
"...............++   ...............++   ",
"...............++   ...............++   ",
"...............++   ...............++   ",
"...............++   ...............++   ",
"...............++   ...............++   ",
"............+++++   ............+++++   ",
"............+++++   ............+++++   ",
"............+++++   ............+++++   ",
"@@+++++++++++++@@   @@+++++++++++++@@   ",
"@@+++++++++++++@@   @@+++++++++++++@@   ",
"  @@@@@@@@@@@@@       @@@@@@@@@@@@@     ",
"  @@@@@@@@@@@@@       @@@@@@@@@@@@@     ",
"  @@@@@@@@@@@@@       @@@@@@@@@@@@@     "};
