/* XPM */
static char * collectible_xpm[] = {
"40 40 5 1",
" 	c None",
".	c #A19B36",
"+	c #000000",
"@	c #FFFFFF",
"#	c #ADADAD",
"                                        ",
"                                        ",
"                                        ",
"                                        ",
"                                        ",
"                                        ",
"                                        ",
"                                        ",
"                                        ",
"                                        ",
"          .....                         ",
"          .....                         ",
"       ...+++++..                       ",
"       ...+++++..                       ",
"       ...+++++..                       ",
"     ..+++@@@@@++....................   ",
"     ..+++@@@@@++....................   ",
"  ...++@@@+++++@@++++++++++++++++++++...",
"  ...++@@@+++++@@++++++++++++++++++++...",
"  ...++@@@+++++@@++++++++++++++++++++...",
"  ...++###+++++##@@@@@@@@@@@@@@@@@@++...",
"  ...++###+++++##@@@@@@@@@@@@@@@@@@++...",
"  ...++###+++++##++++++++++@@@++@@@++...",
"  ...++###+++++##++++++++++@@@++@@@++...",
"  ...++###+++++##++++++++++@@@++@@@++...",
"     ..+++#####++........++++++++++++...",
"     ..+++#####++........++++++++++++...",
"       ...+++++..        ............   ",
"       ...+++++..        ............   ",
"       ...+++++..        ............   ",
"          .....                         ",
"          .....                         ",
"                                        ",
"                                        ",
"                                        ",
"                                        ",
"                                        ",
"                                        ",
"                                        ",
"                                        "};
